<?xml version="1.0" encoding="utf-8"?>
<!-- Generator: Adobe Illustrator 21.1.0, SVG Export Plug-In . SVG Version: 6.00 Build 0)  -->
<svg version="1.1" xmlns="http://www.w3.org/2000/svg" xmlns:xlink="http://www.w3.org/1999/xlink" x="0px" y="0px"
	 viewBox="0 0 513 512" style="enable-background:new 0 0 513 512;" xml:space="preserve">
<style type="text/css">
	.st0{fill:#4A7AC2;}
	.st1{fill:#9E9E9E;}
	.st2{fill:#FFFFFF;}
</style>
<g id="INU">
	<title>자산 3</title>
	<g>
		<path class="st0" d="M182.4,27.8c8.8,0,16.3,7.2,16.7,16l0.2,4.8c0.4,8.8,6.6,11.8,13.8,6.7c0,0,3.4-2.4,13.3-7.4
			c10-5,21.1-9.3,33.4-12.9c12.3-3.6,25.5-6.3,39.7-8.2c14.2-1.9,29.2-2.9,45-2.9c22.1,0,41.9,1.5,59.3,4.4
			c17.5,2.9,32.3,7.6,44.4,13.9c12.1,6.4,21.4,14.5,27.8,24.5c6.4,10,7.7,20.4,7.7,20.4c1.1,8.7,1.9,23.1,1.9,31.9v107.9
			c0,8.8-7.2,16-16,16H453c-8.8,0-16-7.2-16-16V118.7c0-8.8-0.9-23.1-1.9-31.9c0,0-0.5-4.5-5.5-11.9c-4.9-7.4-11.9-13.4-20.9-17.9
			c-9-4.5-20-7.7-32.9-9.6c-13-1.9-27.4-2.9-43.2-2.9c-17.5,0-33.3,1.4-47.5,4.3c-14.2,2.9-26.7,6.7-37.7,11.4
			c-10.9,4.8-20.3,10.2-28.2,16.4c-7.9,6.2-8.5,6.8-8.5,6.8c-5.7,6.7-10.4,19.4-10.4,28.2v115.2c0,8.8-7.2,16-16,16h-16.7
			c-8.8,0-16-7.2-16-16v-183c0-8.8,7.2-16,16-16H182.4z"/>
		<path class="st0" d="M455.1,457.8c-8.8,0-16.3-7.2-16.7-16l-0.2-4.8c-0.4-8.8-6.6-11.8-13.8-6.7c0,0-3.4,2.4-13.3,7.4
			c-10,5-21.1,9.3-33.4,12.9c-12.3,3.6-25.5,6.3-39.7,8.2c-14.2,1.9-29.2,2.9-45,2.9c-22.1,0-41.9-1.5-59.3-4.4
			c-17.5-2.9-32.3-7.6-44.4-13.9c-12.1-6.4-21.4-14.5-27.8-24.5c-6.4-10-7.7-20.4-7.7-20.4c-1.1-8.7-1.9-23.1-1.9-31.9V258.8
			c0-8.8,7.2-16,16-16h16.7c8.8,0,16,7.2,16,16v108.1c0,8.8,0.9,23.1,1.9,31.9c0,0,0.5,4.5,5.5,11.9c4.9,7.4,11.9,13.4,20.9,17.9
			c9,4.5,20,7.7,32.9,9.6c13,1.9,27.4,2.9,43.2,2.9c17.5,0,33.3-1.4,47.5-4.3c14.2-2.8,26.7-6.7,37.7-11.4
			c10.9-4.8,20.3-10.2,28.2-16.4c7.9-6.2,8.5-6.8,8.5-6.8c5.7-6.7,10.4-19.4,10.4-28.2V258.8c0-8.8,7.2-16,16-16h16.7
			c8.8,0,16,7.2,16,16v183c0,8.8-7.2,16-16,16H455.1z"/>
	</g>
	<circle class="st0" cx="78" cy="64.7" r="27.4"/>
	<g>
		<path class="st0" d="M102.3,445.3c0,8.8-7.2,16-16,16H69.7c-8.8,0-16-7.2-16-16V138c0-8.8,7.2-16,16-16h16.7c8.8,0,16,7.2,16,16
			V445.3z"/>
	</g>
	<g>
		<path class="st1" d="M445.9,455.6c-2.8-1.8-5.3-4.4-6.4-6.8c-2.6-5.6,0.9-11.6,2.5-14.6c2.7-4.8,6.4-7.8,9.1-9.5
			c2.9-1.5,5.9-3,8.9-4.5c9-4.4,12.6-6.1,12.6-6.1c7.4-3.3,13.5,0.2,13.5,7.8v22.4c0,7.7-6.8,14-15,14c-5.3,0.1-10.5,0.1-15.8,0.2
			C453.4,458.4,449.7,458,445.9,455.6z"/>
	</g>
</g>
<g id="Bus_front">
	<path class="st0" d="M485.7,373.2c-111.3,0.2-222.6,0.4-333.8,0.7c0-47.8-0.1-95.7-0.1-143.5c111.3,0,222.6,0,333.9,0
		C485.7,278,485.7,325.6,485.7,373.2z"/>
	<ellipse class="st0" cx="311.8" cy="363.9" rx="136.8" ry="87.7"/>
	<circle class="st2" cx="229.1" cy="322.7" r="34"/>
	<circle class="st2" cx="406.5" cy="322.7" r="34"/>
</g>
</svg>
