<?xml version="1.0" encoding="utf-8"?>
<!-- Generator: Adobe Illustrator 21.1.0, SVG Export Plug-In . SVG Version: 6.00 Build 0)  -->
<svg version="1.1" xmlns="http://www.w3.org/2000/svg" xmlns:xlink="http://www.w3.org/1999/xlink" x="0px" y="0px"
	 viewBox="0 0 48 48" style="enable-background:new 0 0 48 48;" xml:space="preserve">
<style type="text/css">
	.st0{fill:#4A7AC2;}
	.st1{fill:#9E9E9E;}
	.st2{fill:#FFFFFF;}
</style>
<g id="INU">
	<title>자산 3</title>
	<g>
		<path class="st0" d="M16.1,4.2c0.8,0,1.5,0.7,1.5,1.5l0,0.4c0,0.8,0.6,1.1,1.3,0.6c0,0,0.3-0.2,1.2-0.7c0.9-0.5,1.9-0.9,3.1-1.2
			c1.1-0.3,2.3-0.6,3.6-0.8C28.2,4,29.6,3.9,31,3.9c2,0,3.8,0.1,5.5,0.4c1.6,0.3,3,0.7,4.1,1.3c1.1,0.6,2,1.3,2.6,2.3
			c0.6,0.9,0.7,1.9,0.7,1.9c0.1,0.8,0.2,2.1,0.2,2.9v9.9c0,0.8-0.7,1.5-1.5,1.5H41c-0.8,0-1.5-0.7-1.5-1.5v-9.9
			c0-0.8-0.1-2.1-0.2-2.9c0,0,0-0.4-0.5-1.1c-0.5-0.7-1.1-1.2-1.9-1.6c-0.8-0.4-1.8-0.7-3-0.9c-1.2-0.2-2.5-0.3-4-0.3
			c-1.6,0-3.1,0.1-4.4,0.4c-1.3,0.3-2.5,0.6-3.5,1c-1,0.4-1.9,0.9-2.6,1.5c-0.7,0.6-0.8,0.6-0.8,0.6c-0.5,0.6-1,1.8-1,2.6v10.6
			c0,0.8-0.7,1.5-1.5,1.5h-1.5c-0.8,0-1.5-0.7-1.5-1.5V5.7c0-0.8,0.7-1.5,1.5-1.5H16.1z"/>
		<path class="st0" d="M41.2,43.8c-0.8,0-1.5-0.7-1.5-1.5l0-0.4c0-0.8-0.6-1.1-1.3-0.6c0,0-0.3,0.2-1.2,0.7
			c-0.9,0.5-1.9,0.9-3.1,1.2c-1.1,0.3-2.3,0.6-3.6,0.8c-1.3,0.2-2.7,0.3-4.1,0.3c-2,0-3.8-0.1-5.5-0.4c-1.6-0.3-3-0.7-4.1-1.3
			c-1.1-0.6-2-1.3-2.6-2.3c-0.6-0.9-0.7-1.9-0.7-1.9c-0.1-0.8-0.2-2.1-0.2-2.9v-9.9c0-0.8,0.7-1.5,1.5-1.5h1.5
			c0.8,0,1.5,0.7,1.5,1.5v9.9c0,0.8,0.1,2.1,0.2,2.9c0,0,0,0.4,0.5,1.1c0.5,0.7,1.1,1.2,1.9,1.6c0.8,0.4,1.8,0.7,3,0.9
			c1.2,0.2,2.5,0.3,4,0.3c1.6,0,3.1-0.1,4.4-0.4c1.3-0.3,2.5-0.6,3.5-1c1-0.4,1.9-0.9,2.6-1.5c0.7-0.6,0.8-0.6,0.8-0.6
			c0.5-0.6,1-1.8,1-2.6V25.5c0-0.8,0.7-1.5,1.5-1.5h1.5c0.8,0,1.5,0.7,1.5,1.5v16.8c0,0.8-0.7,1.5-1.5,1.5H41.2z"/>
	</g>
	<circle class="st0" cx="6.5" cy="7.6" r="2.5"/>
	<g>
		<path class="st0" d="M8.8,42.1c0,1.1-0.9,2-2,2H6.3c-1.1,0-2-0.9-2-2V14.9c0-1.1,0.9-2,2-2h0.5c1.1,0,2,0.9,2,2V42.1z"/>
	</g>
	<g>
		<path class="st1" d="M40.3,43.5c-0.3-0.2-0.5-0.4-0.6-0.6c-0.2-0.5,0.1-1.1,0.2-1.3c0.2-0.4,0.6-0.7,0.8-0.9
			c0.3-0.1,0.5-0.3,0.8-0.4c0.8-0.4,1.2-0.6,1.2-0.6c0.7-0.3,1.2,0,1.2,0.7v2.1c0,0.7-0.6,1.3-1.4,1.3c-0.5,0-1,0-1.5,0
			C41,43.8,40.7,43.8,40.3,43.5z"/>
	</g>
</g>
<g id="Bus_front">
	<path class="st0" d="M44,36c-10.2,0-20.4,0-30.7,0.1c0-4.4,0-8.8,0-13.2c10.2,0,20.5,0,30.7,0C44,27.2,44,31.6,44,36z"/>
	<ellipse class="st0" cx="28" cy="35.1" rx="12.6" ry="8.1"/>
	<circle class="st2" cx="20.4" cy="31.3" r="3.1"/>
	<circle class="st2" cx="36.7" cy="31.3" r="3.1"/>
</g>
</svg>
