<?xml version="1.0" encoding="utf-8"?>
<!-- Generator: Adobe Illustrator 21.1.0, SVG Export Plug-In . SVG Version: 6.00 Build 0)  -->
<svg version="1.1" xmlns="http://www.w3.org/2000/svg" xmlns:xlink="http://www.w3.org/1999/xlink" x="0px" y="0px"
	 viewBox="0 0 513 512" style="enable-background:new 0 0 513 512;" xml:space="preserve">
<style type="text/css">
	.st0{fill:#FFFFFF;}
	.st1{fill:#4A7AC2;}
	.st2{fill:#9E9E9E;}
</style>
<g id="레이어_3">
	<path class="st0" d="M257,512h-1C114.6,512,0,397.4,0,256v0C0,114.6,114.6,0,256,0h1c141.4,0,256,114.6,256,256v0
		C513,397.4,398.4,512,257,512z"/>
</g>
<g id="INU">
	<title>자산 3</title>
	<g>
		<path class="st1" d="M196.5,70.5c7.1,0,13.1,5.8,13.4,12.8l0.2,3.8c0.3,7,5.3,9.5,11,5.4c0,0,2.7-1.9,10.7-6
			c8-4,16.9-7.5,26.7-10.4c9.8-2.9,20.4-5.1,31.8-6.6c11.4-1.5,23.4-2.3,36.1-2.3c17.7,0,33.6,1.2,47.6,3.5
			c14,2.3,25.9,6.1,35.6,11.1c9.7,5.1,17.2,11.7,22.3,19.7c5.1,8,6.2,16.3,6.2,16.3c0.9,7,1.6,18.5,1.6,25.6V230
			c0,7.1-5.8,12.8-12.8,12.8h-13.4c-7.1,0-12.8-5.8-12.8-12.8v-86.6c0-7.1-0.7-18.6-1.5-25.6c0,0-0.4-3.6-4.4-9.6
			c-3.9-5.9-9.5-10.7-16.7-14.3c-7.2-3.6-16-6.2-26.4-7.7c-10.4-1.5-21.9-2.3-34.6-2.3c-14,0-26.7,1.1-38.1,3.4
			c-11.4,2.3-21.4,5.3-30.2,9.2c-8.7,3.8-16.3,8.2-22.6,13.1c-6.3,4.9-6.8,5.4-6.8,5.4c-4.6,5.4-8.3,15.5-8.3,22.6V230
			c0,7.1-5.8,12.8-12.8,12.8h-13.4c-7.1,0-12.8-5.8-12.8-12.8V83.3c0-7.1,5.8-12.8,12.8-12.8H196.5z"/>
		<path class="st1" d="M415,415.2c-7.1,0-13.1-5.8-13.4-12.8l-0.2-3.8c-0.3-7-5.3-9.5-11-5.4c0,0-2.7,1.9-10.7,6
			c-8,4-16.9,7.5-26.7,10.4c-9.8,2.9-20.4,5.1-31.8,6.6c-11.4,1.5-23.4,2.3-36.1,2.3c-17.7,0-33.6-1.2-47.6-3.5
			c-14-2.3-25.9-6.1-35.6-11.2c-9.7-5.1-17.2-11.7-22.3-19.7c-5.1-8-6.2-16.3-6.2-16.3c-0.9-7-1.6-18.5-1.6-25.6v-86.5
			c0-7.1,5.8-12.8,12.8-12.8h13.4c7.1,0,12.8,5.8,12.8,12.8v86.6c0,7.1,0.7,18.6,1.5,25.6c0,0,0.4,3.6,4.4,9.6
			c3.9,5.9,9.5,10.7,16.7,14.3c7.2,3.6,16,6.2,26.4,7.7c10.4,1.5,21.9,2.3,34.6,2.3c14,0,26.7-1.1,38.1-3.4
			c11.4-2.3,21.4-5.3,30.2-9.2c8.8-3.8,16.3-8.2,22.6-13.1c6.3-4.9,6.8-5.4,6.8-5.4c4.6-5.4,8.3-15.5,8.3-22.6v-92.4
			c0-7.1,5.8-12.8,12.8-12.8h13.4c7.1,0,12.8,5.8,12.8,12.8v146.7c0,7.1-5.8,12.8-12.8,12.8H415z"/>
	</g>
	<circle class="st1" cx="112.8" cy="100" r="22"/>
	<g>
		<path class="st1" d="M132.3,402c0,8.8-7.2,16-16,16h-7c-8.8,0-16-7.2-16-16V162c0-8.8,7.2-16,16-16h7c8.8,0,16,7.2,16,16V402z"/>
	</g>
	<g>
		<path class="st2" d="M407.6,413.4c-2.2-1.4-4.3-3.5-5.2-5.4c-2.1-4.5,0.7-9.3,2-11.7c2.1-3.9,5.1-6.3,7.3-7.6
			c2.3-1.2,4.7-2.4,7.1-3.6c7.2-3.5,10.1-4.9,10.1-4.9c5.9-2.7,10.8,0.2,10.8,6.3v18c0,6.2-5.4,11.2-12,11.2
			c-4.2,0.1-8.4,0.1-12.7,0.2C413.7,415.6,410.7,415.3,407.6,413.4z"/>
	</g>
</g>
<g id="Bus_front">
	<path class="st1" d="M439.6,347.4c-89.2,0.2-178.4,0.4-267.6,0.5c0-38.3-0.1-76.7-0.1-115c89.2,0,178.5,0,267.7,0
		C439.6,271,439.6,309.2,439.6,347.4z"/>
	<ellipse class="st1" cx="300.2" cy="339.9" rx="109.7" ry="70.3"/>
	<circle class="st0" cx="233.9" cy="306.8" r="27.3"/>
	<circle class="st0" cx="376.1" cy="306.8" r="27.3"/>
</g>
</svg>
