<?xml version="1.0" encoding="utf-8"?>
<!-- Generator: Adobe Illustrator 21.1.0, SVG Export Plug-In . SVG Version: 6.00 Build 0)  -->
<svg version="1.1" id="레이어_1" xmlns="http://www.w3.org/2000/svg" xmlns:xlink="http://www.w3.org/1999/xlink" x="0px"
	 y="0px" viewBox="0 0 513 512" style="enable-background:new 0 0 513 512;" xml:space="preserve">
<style type="text/css">
	.st0{fill:#4A7AC2;}
</style>
<g>
	<g>
		<path class="st0" d="M198.4,27.8C198.4,27.8,198.4,27.8,198.4,27.8l1.6,36.7c0,0,0,0,0,0c0,0,16.4-11.6,26.4-16.7
			c10-5,21.1-9.3,33.4-12.9c12.3-3.6,25.5-6.3,39.7-8.2c14.2-1.9,29.2-2.9,45-2.9c22.1,0,41.9,1.5,59.3,4.4
			c17.5,2.9,32.3,7.6,44.4,13.9c12.1,6.4,21.4,14.5,27.8,24.5c6.4,10,9.6,36.3,9.6,36.3c0,0,0,0,0,0v139.9c0,0,0,0,0,0H437
			c0,0,0,0,0,0V102.7c0,0,0,0,0,0c0,0-2.5-20.4-7.4-27.8c-4.9-7.4-11.9-13.4-20.9-17.9c-9-4.5-20-7.7-32.9-9.6
			c-13-1.9-27.4-2.9-43.2-2.9c-17.5,0-33.3,1.4-47.5,4.3c-14.2,2.9-26.7,6.7-37.7,11.4c-10.9,4.8-20.3,10.2-28.2,16.4
			c-7.9,6.2-18.8,19-18.8,19c0,0,0,0,0,0v147.2c0,0,0,0,0,0h-48.7c0,0,0,0,0,0v-215c0,0,0,0,0,0H198.4z"/>
	</g>
</g>
<title>자산 3</title>
<g>
	<g>
		<path class="st0" d="M439.1,457.8C439.1,457.8,439.1,457.8,439.1,457.8l-1.6-36.7c0,0,0,0,0,0c0,0-16.4,11.6-26.4,16.7
			c-10,5-21.1,9.3-33.4,12.9c-12.3,3.6-25.5,6.3-39.7,8.2c-14.2,1.9-29.2,2.9-45,2.9c-22.1,0-41.9-1.5-59.3-4.4
			c-17.5-2.9-32.3-7.6-44.4-13.9c-12.1-6.4-21.4-14.5-27.8-24.5c-6.4-10-9.6-36.3-9.6-36.3c0,0,0,0,0,0V242.8c0,0,0,0,0,0h48.7
			c0,0,0,0,0,0v140.1c0,0,0,0,0,0c0,0,2.5,20.4,7.4,27.8c4.9,7.4,11.9,13.4,20.9,17.9c9,4.5,20,7.7,32.9,9.6
			c13,1.9,27.4,2.9,43.2,2.9c17.5,0,33.3-1.4,47.5-4.3c14.2-2.8,26.7-6.7,37.7-11.4c10.9-4.8,20.3-10.2,28.2-16.4
			c7.9-6.2,18.8-19,18.8-19c0,0,0,0,0,0V242.8c0,0,0,0,0,0h48.7c0,0,0,0,0,0v215c0,0,0,0,0,0H439.1z"/>
	</g>
</g>
<circle class="st0" cx="78" cy="64.7" r="27.4"/>
<rect x="53.7" y="122" class="st0" width="48.7" height="339.3"/>
</svg>
