<svg xmlns="http://www.w3.org/2000/svg" viewBox="0 0 513 512"><defs><style>.cls-1{fill:#fff;}.cls-2{fill:#4a7ac2;}.cls-3{fill:#9e9e9e;}</style></defs><title>round</title><g id="레이어_2" data-name="레이어 2"><g id="레이어_3" data-name="레이어 3"><rect class="cls-1" width="513" height="512" rx="256" ry="256"/></g><g id="INU"><path class="cls-2" d="M196.45,70.48a13.57,13.57,0,0,1,13.4,12.81l.17,3.84c.31,7,5.28,9.47,11,5.39a97.27,97.27,0,0,1,10.7-6,155.79,155.79,0,0,1,26.74-10.35,218.75,218.75,0,0,1,31.82-6.61,269.35,269.35,0,0,1,36.08-2.31A291.14,291.14,0,0,1,374,70.8q21,3.51,35.59,11.15t22.31,19.67A43.6,43.6,0,0,1,438,118a255.08,255.08,0,0,1,1.56,25.56V230a12.86,12.86,0,0,1-12.83,12.83H413.35A12.86,12.86,0,0,1,400.53,230V143.35c0-7.05-.69-18.56-1.53-25.56,0,0-.44-3.62-4.37-9.57A42.1,42.1,0,0,0,377.89,93.9q-10.83-5.41-26.41-7.73a237.51,237.51,0,0,0-34.61-2.31,194,194,0,0,0-38.05,3.42,148.38,148.38,0,0,0-30.18,9.16A105.25,105.25,0,0,0,226,109.58c-6.35,4.94-6.78,5.44-6.78,5.44-4.57,5.37-8.31,15.54-8.31,22.59V230a12.86,12.86,0,0,1-12.83,12.83H184.7A12.86,12.86,0,0,1,171.88,230V83.31A12.86,12.86,0,0,1,184.7,70.48Z"/><path class="cls-2" d="M415,415.15a13.57,13.57,0,0,1-13.4-12.81l-.17-3.84c-.31-7-5.28-9.47-11-5.39a97.18,97.18,0,0,1-10.7,6A155.77,155.77,0,0,1,353,409.42,218.8,218.8,0,0,1,321.14,416a269.42,269.42,0,0,1-36.08,2.31,291.14,291.14,0,0,1-47.57-3.5q-21-3.51-35.59-11.15T179.59,384a43.59,43.59,0,0,1-6.15-16.34,255,255,0,0,1-1.56-25.56V255.64a12.86,12.86,0,0,1,12.83-12.83h13.39a12.86,12.86,0,0,1,12.83,12.83v86.64c0,7.05.69,18.56,1.53,25.56,0,0,.44,3.62,4.37,9.56a42.09,42.09,0,0,0,16.73,14.33q10.83,5.41,26.41,7.73a237.46,237.46,0,0,0,34.61,2.31,194,194,0,0,0,38.05-3.42,148.37,148.37,0,0,0,30.18-9.16,105.26,105.26,0,0,0,22.64-13.14c6.35-4.94,6.78-5.44,6.78-5.44,4.57-5.37,8.31-15.54,8.31-22.59V255.64a12.86,12.86,0,0,1,12.83-12.83h13.39a12.86,12.86,0,0,1,12.83,12.83V402.33a12.86,12.86,0,0,1-12.83,12.83Z"/><circle class="cls-2" cx="112.75" cy="100.01" r="21.98"/><rect class="cls-2" x="93.25" y="145.97" width="39.01" height="272.01" rx="16" ry="16"/><path class="cls-3" d="M407.63,413.37a14.26,14.26,0,0,1-5.16-5.43c-2.07-4.49.73-9.31,2-11.68a21.14,21.14,0,0,1,7.3-7.64c2.33-1.21,4.69-2.43,7.11-3.61,7.2-3.53,10.06-4.9,10.06-4.9,5.91-2.67,10.8.17,10.8,6.28v18c0,6.19-5.45,11.18-12,11.18l-12.67.17A15.5,15.5,0,0,1,407.63,413.37Z"/></g><g id="Bus_front" data-name="Bus front"><path class="cls-2" d="M439.57,347.37,172,347.9l-.09-115H439.57Z"/><ellipse class="cls-2" cx="300.17" cy="339.92" rx="109.68" ry="70.32"/><circle class="cls-1" cx="233.88" cy="306.81" r="27.27"/><circle class="cls-1" cx="376.09" cy="306.81" r="27.27"/></g></g></svg>