<?xml version="1.0" encoding="utf-8"?>
<!-- Generator: Adobe Illustrator 21.1.0, SVG Export Plug-In . SVG Version: 6.00 Build 0)  -->
<svg version="1.1" id="레이어_1" xmlns="http://www.w3.org/2000/svg" xmlns:xlink="http://www.w3.org/1999/xlink" x="0px"
	 y="0px" viewBox="0 0 513 512" style="enable-background:new 0 0 513 512;" xml:space="preserve">
<style type="text/css">
	.st0{fill:#FFFFFF;}
	.st1{fill:#4A7AC2;}
	.st2{fill:#9E9E9E;}
</style>
<g id="레이어_2">
	<path class="st0" d="M40,0h433c22.1,0,40,17.9,40,40v432c0,22.1-17.9,40-40,40H40c-22.1,0-40-17.9-40-40V40C0,17.9,17.9,0,40,0z"/>
</g>
<g>
	<g>
		<path class="st1" d="M140.4,28.8C140.4,28.8,140.4,28.8,140.4,28.8l1.6,36.7c0,0,0,0,0,0c0,0,16.4-11.6,26.4-16.7
			c10-5,21.1-9.3,33.4-12.9c12.3-3.6,25.5-6.3,39.7-8.2c14.2-1.9,29.2-2.9,45-2.9c22.1,0,41.9,1.5,59.3,4.4
			c17.5,2.9,32.3,7.6,44.4,13.9c12.1,6.4,21.4,14.5,27.8,24.5c6.4,10,9.6,36.3,9.6,36.3c0,0,0,0,0,0v139.9c0,0,0,0,0,0H379
			c0,0,0,0,0,0V103.7c0,0,0,0,0,0c0,0-2.5-20.4-7.4-27.8c-4.9-7.4-11.9-13.4-20.9-17.9c-9-4.5-20-7.7-32.9-9.6
			c-13-1.9-27.4-2.9-43.2-2.9c-17.5,0-33.3,1.4-47.5,4.3c-14.2,2.9-26.7,6.7-37.7,11.4c-10.9,4.8-20.3,10.2-28.2,16.4
			c-7.9,6.2-18.8,19-18.8,19c0,0,0,0,0,0v147.2c0,0,0,0,0,0H93.8c0,0,0,0,0,0v-215c0,0,0,0,0,0H140.4z"/>
	</g>
</g>
<title>자산 3</title>
<g>
	<g>
		<path class="st1" d="M381.1,457.8C381.1,457.8,381.1,457.8,381.1,457.8l-1.6-36.7c0,0,0,0,0,0c0,0-16.4,11.6-26.4,16.7
			c-10,5-21.1,9.3-33.4,12.9c-12.3,3.6-25.5,6.3-39.7,8.2c-14.2,1.9-29.2,2.9-45,2.9c-22.1,0-41.9-1.5-59.3-4.4
			c-17.5-2.9-32.3-7.6-44.4-13.9c-12.1-6.4-21.4-14.5-27.8-24.5c-6.4-10-9.6-36.3-9.6-36.3c0,0,0,0,0,0V242.8c0,0,0,0,0,0h48.7
			c0,0,0,0,0,0v140.1c0,0,0,0,0,0c0,0,2.5,20.4,7.4,27.8c4.9,7.4,11.9,13.4,20.9,17.9c9,4.5,20,7.7,32.9,9.6
			c13,1.9,27.4,2.9,43.2,2.9c17.5,0,33.3-1.4,47.5-4.3c14.2-2.8,26.7-6.7,37.7-11.4c10.9-4.8,20.3-10.2,28.2-16.4
			c7.9-6.2,18.8-19,18.8-19c0,0,0,0,0,0V242.8c0,0,0,0,0,0h48.7c0,0,0,0,0,0v215c0,0,0,0,0,0H381.1z"/>
	</g>
</g>
<g>
	<path class="st2" d="M739,554.8c-2.8-1.8-5.3-4.4-6.4-6.8c-2.6-5.6,0.9-11.6,2.5-14.6c2.7-4.8,6.4-7.8,9.1-9.5
		c2.9-1.5,5.9-3,8.9-4.5c9-4.4,12.6-6.1,12.6-6.1c7.4-3.3,13.5,0.2,13.5,7.8v22.4c0,7.7-6.8,14-15,14c-5.3,0.1-10.5,0.1-15.8,0.2
		C746.5,557.6,742.8,557.2,739,554.8z"/>
</g>
<rect x="133" y="228.2" class="st1" width="257.3" height="164.2"/>
<ellipse class="st1" cx="253.5" cy="361.4" rx="136.8" ry="87.7"/>
<circle class="st0" cx="170.8" cy="320.1" r="34"/>
<circle class="st0" cx="348.2" cy="320.1" r="34"/>
</svg>
