<svg xmlns="http://www.w3.org/2000/svg" viewBox="0 0 513 512"><defs><style>.cls-1{fill:#fff;}.cls-2{fill:#4a7ac2;}.cls-3{fill:#9e9e9e;}</style></defs><title>자산 1</title><g id="레이어_2" data-name="레이어 2"><g id="레이어_1-2" data-name="레이어 1"><g id="레이어_3" data-name="레이어 3"><path class="cls-1" d="M465,512H48A48,48,0,0,1,0,464V48A48,48,0,0,1,48,0H465a48,48,0,0,1,48,48V464A48,48,0,0,1,465,512Z"/></g><g id="INU"><path class="cls-2" d="M182.4,27.8a16.94,16.94,0,0,1,16.7,16l.2,4.8c.4,8.8,6.6,11.8,13.8,6.7,0,0,3.4-2.4,13.3-7.4A200.35,200.35,0,0,1,259.8,35a267.49,267.49,0,0,1,39.7-8.2,339.25,339.25,0,0,1,45-2.9,363.24,363.24,0,0,1,59.3,4.4c17.5,2.9,32.3,7.6,44.4,13.9S469.6,56.7,476,66.7a54.85,54.85,0,0,1,7.7,20.4,308.54,308.54,0,0,1,1.9,31.9V226.9a16,16,0,0,1-16,16H453a16,16,0,0,1-16-16V118.7c0-8.8-.9-23.1-1.9-31.9,0,0-.5-4.5-5.5-11.9S417.7,61.5,408.7,57s-20-7.7-32.9-9.6a299.7,299.7,0,0,0-43.2-2.9,238.08,238.08,0,0,0-47.5,4.3,195.23,195.23,0,0,0-37.7,11.4,130.76,130.76,0,0,0-28.2,16.4c-7.9,6.2-8.5,6.8-8.5,6.8-5.7,6.7-10.4,19.4-10.4,28.2V226.8a16,16,0,0,1-16,16H167.6a16,16,0,0,1-16-16V43.8a16,16,0,0,1,16-16h14.8Z"/><path class="cls-2" d="M455.1,457.8a16.94,16.94,0,0,1-16.7-16l-.2-4.8c-.4-8.8-6.6-11.8-13.8-6.7,0,0-3.4,2.4-13.3,7.4a200.35,200.35,0,0,1-33.4,12.9,267.49,267.49,0,0,1-39.7,8.2,339.25,339.25,0,0,1-45,2.9,363.24,363.24,0,0,1-59.3-4.4c-17.5-2.9-32.3-7.6-44.4-13.9s-21.4-14.5-27.8-24.5a54.85,54.85,0,0,1-7.7-20.4,308.54,308.54,0,0,1-1.9-31.9V258.8a16,16,0,0,1,16-16h16.7a16,16,0,0,1,16,16V366.9c0,8.8.9,23.1,1.9,31.9,0,0,.5,4.5,5.5,11.9s11.9,13.4,20.9,17.9,20,7.7,32.9,9.6a299.71,299.71,0,0,0,43.2,2.9,238.08,238.08,0,0,0,47.5-4.3,188.47,188.47,0,0,0,37.7-11.4A130.76,130.76,0,0,0,418.4,409c7.9-6.2,8.5-6.8,8.5-6.8,5.7-6.7,10.4-19.4,10.4-28.2V258.8a16,16,0,0,1,16-16H470a16,16,0,0,1,16,16v183a16,16,0,0,1-16,16Z"/><circle class="cls-2" cx="78" cy="64.7" r="27.4"/><path class="cls-2" d="M102.3,445.3a16,16,0,0,1-16,16H69.7a16,16,0,0,1-16-16V138a16,16,0,0,1,16-16H86.4a16,16,0,0,1,16,16V445.3Z"/><path class="cls-3" d="M445.9,455.6a17.88,17.88,0,0,1-6.4-6.8c-2.6-5.6.9-11.6,2.5-14.6a26.88,26.88,0,0,1,9.1-9.5c2.9-1.5,5.9-3,8.9-4.5,9-4.4,12.6-6.1,12.6-6.1,7.4-3.3,13.5.2,13.5,7.8v22.4c0,7.7-6.8,14-15,14-5.3.1-10.5.1-15.8.2A19.31,19.31,0,0,1,445.9,455.6Z"/></g><g id="Bus_front" data-name="Bus front"><path class="cls-2" d="M485.7,373.2q-166.95.3-333.8.7,0-71.7-.1-143.5H485.7Z"/><ellipse class="cls-2" cx="311.8" cy="363.9" rx="136.8" ry="87.7"/><circle class="cls-1" cx="229.1" cy="322.7" r="34"/><circle class="cls-1" cx="406.5" cy="322.7" r="34"/></g></g></g></svg>