<?xml version="1.0" encoding="utf-8"?>
<!-- Generator: Adobe Illustrator 21.1.0, SVG Export Plug-In . SVG Version: 6.00 Build 0)  -->
<svg version="1.1" id="레이어_2" xmlns="http://www.w3.org/2000/svg" xmlns:xlink="http://www.w3.org/1999/xlink" x="0px"
	 y="0px" viewBox="0 0 32 32" style="enable-background:new 0 0 32 32;" xml:space="preserve">
<style type="text/css">
	.st0{fill:none;stroke:#0000FF;stroke-miterlimit:10;}
	.st1{fill:none;stroke:#0000FF;stroke-width:0.5;stroke-miterlimit:10;}
	.st2{opacity:0.18;fill:none;stroke:#0000FF;stroke-width:0.5;stroke-miterlimit:10;}
	.st3{fill:none;stroke:#0000FF;stroke-width:0.75;stroke-miterlimit:10;}
	.st4{fill:#0000FF;stroke:#0000FF;stroke-width:0.5;stroke-miterlimit:10;}
	.st5{opacity:0.13;fill:none;stroke:#0000FF;stroke-miterlimit:10;}
	.st6{opacity:0.13;fill:none;stroke:#0000FF;stroke-width:0.75;stroke-miterlimit:10;}
	.st7{opacity:0.13;fill:#0000FF;stroke:#0000FF;stroke-width:0.5;stroke-miterlimit:10;}
</style>
<g>
	<path class="st0" d="M28.2,29.8c1.1,0,1.6-0.8,1.2-1.8L20.6,8.6c-0.5-1,0.1-1.8,1.2-1.8h0.8c1.1,0,2-0.9,2-2V4.2c0-1.1-0.9-2-2-2
		H11.5c-1.1,0-2,0.9-2,2v0.6c0,1.1,0.9,2,2,2h0.6c1.1,0,1.6,0.8,1.2,1.8L4.6,27.8c-0.5,1,0.1,1.8,1.2,1.8L28.2,29.8z"/>
</g>
<path class="st1" d="M8.9,18.1c2-1.9,3.6-2.4,4.7-2.4c2.2-0.1,3.4,1.2,6.1,1.3c1.8,0,3.3-0.5,4.2-1"/>
<path class="st2" d="M9.9,15.7c2,1.9,3.6,2.2,4.7,2.2c2.3,0,3.4-1.5,6-1.7c1.9-0.1,3.4,0.6,4.4,1.2"/>
<circle class="st3" cx="12.1" cy="22" r="1.2"/>
<circle class="st3" cx="19.7" cy="26.1" r="2.7"/>
<circle class="st4" cx="10.9" cy="25.8" r="0.9"/>
<circle class="st4" cx="16.1" cy="18.5" r="0.9"/>
<circle class="st3" cx="20.9" cy="20.8" r="0.9"/>
<circle class="st5" cx="12.8" cy="20.2" r="2.1"/>
<circle class="st6" cx="23.7" cy="24.1" r="1.2"/>
<circle class="st7" cx="19.6" cy="25.7" r="0.9"/>
<circle class="st6" cx="14.3" cy="26.1" r="1.6"/>
</svg>
