<?xml version="1.0" encoding="utf-8"?>
<!-- Generator: Adobe Illustrator 21.1.0, SVG Export Plug-In . SVG Version: 6.00 Build 0)  -->
<svg version="1.1" id="레이어_1" xmlns="http://www.w3.org/2000/svg" xmlns:xlink="http://www.w3.org/1999/xlink" x="0px"
	 y="0px" viewBox="0 0 400 400" style="enable-background:new 0 0 400 400;" xml:space="preserve">
<style type="text/css">
	.st0{fill:#014999;}
	.st1{fill:#FBAE16;}
</style>
<g>
	<path class="st0" d="M341,96v215H59V96H341 M352,85H48v237h304V85L352,85z"/>
</g>
<g>
	<path class="st0" d="M47,61c0.5,0,1,0.5,1,1v248c0,0.5-0.5,1-1,1H33c-0.5,0-1-0.5-1-1V62c0-0.5,0.5-1,1-1H47 M47,50H33
		c-6.6,0-12,5.4-12,12v248c0,6.6,5.4,12,12,12h14c6.6,0,12-5.4,12-12V62C59,55.4,53.6,50,47,50L47,50z"/>
</g>
<g>
	<path class="st0" d="M367,61c0.5,0,1,0.5,1,1v248c0,0.5-0.5,1-1,1h-14c-0.5,0-1-0.5-1-1V62c0-0.5,0.5-1,1-1H367 M367,50h-14
		c-6.6,0-12,5.4-12,12v248c0,6.6,5.4,12,12,12h14c6.6,0,12-5.4,12-12V62C379,55.4,373.6,50,367,50L367,50z"/>
</g>
<g>
	<path class="st0" d="M40,18c2.8,0,8,6.3,8,16.5S42.8,51,40,51s-8-6.3-8-16.5S37.2,18,40,18 M40,7C29.5,7,21,19.3,21,34.5
		S29.5,62,40,62s19-12.3,19-27.5S50.5,7,40,7L40,7z"/>
</g>
<g>
	<path class="st0" d="M360,18c2.8,0,8,6.3,8,16.5S362.8,51,360,51s-8-6.3-8-16.5S357.2,18,360,18 M360,7c-10.5,0-19,12.3-19,27.5
		S349.5,62,360,62s19-12.3,19-27.5S370.5,7,360,7L360,7z"/>
</g>
<g>
	<polygon class="st1" points="158.4,272 175.8,254.5 126.4,254.5 126.4,205.2 109,222.6 109,272 	"/>
	<polygon class="st1" points="196.3,135.3 178.9,152.7 228.2,152.7 228.2,202.1 245.7,184.7 245.7,135.3 	"/>
	<g>
		<path class="st0" d="M104.7,161.2H77.5v1c0,0,0,0,0,0h0c2.5,3.2,3.9,6.2,4,11.4V242c0,0.6,0.2,1,0.8,1.3c0.7,0.3,1.3,0,2.3-1l0,0
			l16-16v-52.8c0.1-5.1,1.6-8.1,4-11.2h0c0,0,0,0,0,0V161.2z"/>
	</g>
	<g>
		<path class="st0" d="M322.1,161.2h-27.2v1c0,0,0,0,0,0h0c2.4,3.1,3.8,6,4,10.8v41c0,8.2-6.7,14.9-14.9,14.9
			c-8.2,0-14.9-6.7-14.9-14.9v-48.7c0-1,0-1.9-0.8-2.2c-0.8-0.3-1.2,0-2.2,1v0L250,180.3v32.4c0,18.8,15.2,34,34,34
			c18.8,0,34-15.2,34-34v-38.9c0-5.4,1.5-8.4,4-11.6h0c0,0,0,0,0,0V161.2z"/>
	</g>
	<path class="st0" d="M215.7,161.2h-27.2v1c0,0,0,0,0,0h0c2.5,3.2,4,6.3,4,11.6v35.3L165.7,166L143.6,188v44.7v0
		c0,5.4-1.5,8.5-4,11.7v1h27.2v-1c0,0,0,0,0,0c-2.4-3.1-3.9-6.1-4-11.1v-35.8l26.9,43.3l22.1-22.1v-45c0.1-5.2,1.5-8.2,4-11.4h0
		c0,0,0,0,0,0V161.2z"/>
</g>
</svg>
