<?xml version="1.0" encoding="utf-8"?>
<!-- Generator: Adobe Illustrator 21.1.0, SVG Export Plug-In . SVG Version: 6.00 Build 0)  -->
<svg version="1.1" id="Layer_1" xmlns="http://www.w3.org/2000/svg" xmlns:xlink="http://www.w3.org/1999/xlink" x="0px" y="0px"
	 viewBox="0 0 32 32" style="enable-background:new 0 0 32 32;" xml:space="preserve">
<style type="text/css">
	.st0{fill:#0000FF;}
</style>
<g id="lab_1_">
	<path class="st0" d="M12.6,10c-0.3,0-0.5,0-0.6,0c-0.2,0-0.3,0.1-0.5,0.2c-0.1,0.1-0.3,0.2-0.4,0.4c-0.1,0.2,0,0.3,0,0.4
		c0,0,0,0.9-0.1,2.6c0,0.1,0,0.3,0.1,0.5c0,0.1,0.1,0.2,0.3,0.3c0.2,0.1,0.4,0.1,0.4,0c0.3,0,0.8-0.1,1.7,0
		C11.2,19.7,9,24.9,6.7,30.2c0,0.1-0.1,0.4,0,0.8c0.2,0.4,0.5,0.6,0.6,0.7c0.3,0.2,0.6,0.2,0.8,0.2c6.2,0,12.4,0,18.6,0
		c0.2,0,0.5-0.1,0.9-0.4c0.1-0.1,0.4-0.4,0.6-0.9c0.1-0.5-0.1-1-0.1-1.1c-0.4-0.9-2.9-6.9-6.5-15.1c0.5,0,1.1,0.1,1.7,0
		c0.2,0,0.5,0,0.7-0.2c0.2-0.2,0.2-0.5,0.2-0.5c0,0,0,0,0,0c0-0.1,0.1-0.1,0.1-0.2c0-0.2,0-0.4,0-0.4c-0.1-0.5-0.1-1.7,0-2
		c0,0,0-0.3,0-0.4c0,0-0.1-0.4-0.4-0.5c-0.2-0.1-0.5-0.1-0.5,0C22.7,10.1,19,10.1,12.6,10z M27.3,29.7c0.1,0.3,0.1,0.7-0.1,0.9
		c0,0.1-0.1,0.1-0.1,0.2c-0.2,0.2-0.4,0.3-0.7,0.3L8.5,31.2c-0.3,0-0.6-0.2-0.8-0.4c-0.2-0.3-0.2-0.6-0.1-0.9c1-2.3,1.9-4.5,2.9-6.8
		c1.7-1.2,3.9-2.4,6.5-3.5c1.9-0.8,3.6-1.4,5.2-1.8C23.9,21.7,25.6,25.7,27.3,29.7z M23.5,11.3l0,2c0,0.3-0.2,0.5-0.5,0.5l-2.5,0
		c0.5,1.1,1,2.2,1.5,3.4c-1,0.3-2,0.6-3,0.9c-1.1,0.4-2,0.8-2.8,1.2c-0.7,0.3-1.6,0.8-2.8,1.4c-1,0.6-1.8,1.1-2.5,1.6l3.6-8.4h-2.4
		c-0.3,0-0.5-0.2-0.5-0.5l0-2c0-0.3,0.2-0.5,0.5-0.5l10.9,0C23.1,10.9,23.3,11.1,23.5,11.3z M7.8,30.3 M7.8,24.3 M11.9,13.9
		 M8.5,16.6 M25.1,11.7 M15.4,8.2 M31.6,22 M4.8,27.5 M8.8,32.9 M7.3,30.7 M8.5,23.7 M25,15.7 M24.5,10.6 M28.3,1.1"/>
	<path class="st0" d="M21.3,23.9c1-1,1-2.6,0-3.5c-1-1-2.6-1-3.5,0c-1,1-1,2.6,0,3.5C18.7,24.9,20.3,24.9,21.3,23.9z M18.5,21.1
		c0.6-0.6,1.5-0.6,2.1,0s0.6,1.5,0,2.1c-0.6,0.6-1.5,0.6-2.1,0S17.9,21.7,18.5,21.1z"/>
	<path class="st0" d="M13.9,1.8c-1,1-1,2.6,0,3.5s2.6,1,3.5,0s1-2.6,0-3.5C16.5,0.8,14.9,0.8,13.9,1.8z M16.8,4.6
		c-0.6,0.6-1.5,0.6-2.1,0c-0.6-0.6-0.6-1.5,0-2.1c0.6-0.6,1.5-0.6,2.1,0C17.4,3.1,17.4,4,16.8,4.6z"/>
	<path class="st0" d="M12.5,27.1c0.8,0.8,2,0.8,2.8,0c0.8-0.8,0.8-2,0-2.8c-0.8-0.8-2-0.8-2.8,0C11.7,25.1,11.7,26.3,12.5,27.1z
		 M13.2,25c0.4-0.4,1-0.4,1.4,0c0.4,0.4,0.4,1,0,1.4c-0.4,0.4-1,0.4-1.4,0S12.8,25.4,13.2,25z"/>
	<ellipse transform="matrix(0.7071 -0.7071 0.7071 0.7071 -13.7354 22.4638)" class="st0" cx="20.2" cy="27.8" rx="1" ry="1"/>
	<ellipse transform="matrix(0.7071 -0.7071 0.7071 0.7071 0.9399 16.385)" class="st0" cx="20.2" cy="7.1" rx="1" ry="1"/>
	<path class="st0" d="M26.3,18.4"/>
	<path class="st0" d="M27.5,18.2"/>
	<path class="st0" d="M41.5,21.4"/>
	<path class="st0" d="M-37.7,1.1"/>
</g>
</svg>
