<?xml version="1.0" encoding="utf-8"?>
<!-- Generator: Adobe Illustrator 21.1.0, SVG Export Plug-In . SVG Version: 6.00 Build 0)  -->
<svg version="1.1" id="레이어_1" xmlns="http://www.w3.org/2000/svg" xmlns:xlink="http://www.w3.org/1999/xlink" x="0px"
	 y="0px" viewBox="0 0 512 512" style="enable-background:new 0 0 512 512;" xml:space="preserve">
<style type="text/css">
	.st0{fill:none;stroke:#014999;stroke-width:6;stroke-miterlimit:10;}
</style>
<ellipse class="st0" cx="97.3" cy="112" rx="28.7" ry="31"/>
<path class="st0" d="M147,414c-31,0-62,0-93,0c0-11.6,0-23.2,0-34.8c8.9,0,17.7,0,26.6,0c0-63.8,0-127.6,0-191.4
	c-8.9-5.8-17.7-11.6-26.6-17.4c0-5.8,0-11.6,0-17.4c13.3,0,26.6,0,39.9,0c8.9,0,17.7,0,26.6,0c0,75.4,0,150.8,0,226.2
	c8.9,0,17.7,0,26.6,0C147,390.8,147,402.4,147,414z"/>
<path class="st0" d="M450,243c-12,0-24,0-36,0c0-42,0-84,0-126c-54,0-108,0-162,0c-12,6-24,12-36,18c0,36,0,72,0,108
	c-12,0-24,0-36,0c0-51,0-102,0-153c12,0,24,0,36,0c0,6,0,12,0,18c12-6,24-12,36-18c66,0,132,0,198,0C450,141,450,192,450,243z"/>
<path class="st0" d="M180,243c12,0,24,0,36,0c0,42,0,84,0,126c54,0,108,0,162,0c12-6,24-12,36-18c0-36,0-72,0-108c12,0,24,0,36,0
	c0,51,0,102,0,153c-12,0-24,0-36,0c0-6,0-12,0-18c-12,6-24,12-36,18c-66,0-132,0-198,0C180,345,180,294,180,243z"/>
<path class="st0" d="M213,94.7"/>
<path class="st0" d="M213,200.6"/>
<path class="st0" d="M63,405"/>
<path class="st0" d="M221.1,62.1"/>
</svg>
