<?xml version="1.0" encoding="utf-8"?>
<!-- Generator: Adobe Illustrator 21.1.0, SVG Export Plug-In . SVG Version: 6.00 Build 0)  -->
<svg version="1.1" id="레이어_1" xmlns="http://www.w3.org/2000/svg" xmlns:xlink="http://www.w3.org/1999/xlink" x="0px"
	 y="0px" viewBox="0 0 512 512" style="enable-background:new 0 0 512 512;" xml:space="preserve">
<style type="text/css">
	.st0{fill:none;stroke:#014999;stroke-width:6;stroke-miterlimit:10;}
</style>
<g>
	<circle class="st0" cx="123.4" cy="70.3" r="16.3"/>
	<path class="st0" d="M156,216.9c-19,0-38,0-57,0c0-5.1,0-10.1,0-15.2c5.4,0,10.9,0,16.3,0c0-27.9,0-55.7,0-83.6
		c-5.4-2.5-10.9-5.1-16.3-7.6c0-2.5,0-5.1,0-7.6c8.1,0,16.3,0,24.4,0c5.4,0,10.9,0,16.3,0c0,32.9,0,65.9,0,98.8c5.4,0,10.9,0,16.3,0
		C156,206.7,156,211.8,156,216.9z"/>
</g>
<path class="st0" d="M302.6,216.9c-8.1,0-16.3,0-24.4,0c0-35.3,0-70.6,0-105.9c-16.3,0-32.6,0-48.9,0c-8.1,5.4-16.3,10.9-24.4,16.3
	c0,29.9,0,59.7,0,89.6c-8.1,0-16.3,0-24.4,0c0-43.4,0-86.9,0-130.3c8.1,0,16.3,0,24.4,0c0,5.4,0,10.9,0,16.3
	c8.1-5.4,16.3-10.9,24.4-16.3c24.4,0,48.9,0,73.3,0C302.6,130,302.6,173.4,302.6,216.9z"/>
<path class="st0" d="M213,94.7"/>
<path class="st0" d="M213,200.6"/>
<path class="st0" d="M99,225"/>
<path class="st0" d="M221.1,62.1"/>
<path class="st0" d="M318.9,86.6c8.1,0,16.3,0,24.4,0c0,35.3,0,70.6,0,105.9c16.3,0,32.6,0,48.9,0c8.1-5.4,16.3-10.9,24.4-16.3
	c0-29.9,0-59.7,0-89.6c8.1,0,16.3,0,24.4,0c0,43.4,0,86.9,0,130.3c-8.1,0-16.3,0-24.4,0c0-5.4,0-10.9,0-16.3
	c-8.1,5.4-16.3,10.9-24.4,16.3c-24.4,0-48.9,0-73.3,0C318.9,173.4,318.9,130,318.9,86.6z"/>
</svg>
