<?xml version="1.0" encoding="utf-8"?>
<!-- Generator: Adobe Illustrator 21.1.0, SVG Export Plug-In . SVG Version: 6.00 Build 0)  -->
<svg version="1.1" id="레이어_1" xmlns="http://www.w3.org/2000/svg" xmlns:xlink="http://www.w3.org/1999/xlink" x="0px"
	 y="0px" viewBox="0 0 512 512" style="enable-background:new 0 0 512 512;" xml:space="preserve">
<style type="text/css">
	.st0{fill:#9E9E9E;stroke:#9E9E9E;stroke-width:6;stroke-miterlimit:10;}
	.st1{fill:#014999;stroke:#014999;stroke-width:6;stroke-miterlimit:10;}
	.st2{fill:none;stroke:#014999;stroke-width:6;stroke-miterlimit:10;}
	.st3{fill:#FFFFFF;}
</style>
<rect x="414" y="360" class="st0" width="36" height="36"/>
<ellipse class="st1" cx="97.3" cy="112" rx="28.7" ry="31"/>
<path class="st1" d="M147,396c-31,0-62,0-93,0c0-10.8,0-21.6,0-32.4c8.9,0,17.7,0,26.6,0c0-59.4,0-118.8,0-178.2
	c-8.9-5.4-17.7-10.8-26.6-16.2c0-5.4,0-10.8,0-16.2c13.3,0,26.6,0,39.9,0c8.9,0,17.7,0,26.6,0c0,70.2,0,140.4,0,210.6
	c8.9,0,17.7,0,26.6,0C147,374.4,147,385.2,147,396z"/>
<path class="st1" d="M450,243c-12,0-24,0-36,0c0-42,0-84,0-126c-54,0-108,0-162,0c-12,6-24,12-36,18c0,36,0,72,0,108
	c-12,0-24,0-36,0c0-51,0-102,0-153c12,0,24,0,36,0c0,6,0,12,0,18c12-6,24-12,36-18c66,0,132,0,198,0C450,141,450,192,450,243z"/>
<path class="st1" d="M180,243c12,0,24,0,36,0c0,42,0,84,0,126c54,0,108,0,162,0c12-6,24-12,36-18c0-36,0-72,0-108c12,0,24,0,36,0
	c0,39,0,78,0,117c-6,3-12,6-18,9s-12,6-18,9c-12,6-24,12-36,18c-66,0-132,0-198,0C180,345,180,294,180,243z"/>
<path class="st1" d="M213,94.7"/>
<path class="st1" d="M213,200.6"/>
<path class="st1" d="M63,405"/>
<path class="st2" d="M221.1,62.1"/>
<path class="st1" d="M117,126"/>
<path class="st1" d="M450,342c-24,12-48,24-72,36c-66,0-132,0-198,0V225h270C450,264,450,303,450,342z"/>
<circle class="st3" cx="243" cy="288" r="18"/>
<circle class="st3" cx="387" cy="288" r="18"/>
<path class="st3" d="M414,117c-54,0-108,0-162,0c-12,6-24,12-36,18c0,30,0,60,0,90h198V117z"/>
</svg>
