<?xml version="1.0" encoding="utf-8"?>
<!-- Generator: Adobe Illustrator 21.1.0, SVG Export Plug-In . SVG Version: 6.00 Build 0)  -->
<svg version="1.1" xmlns="http://www.w3.org/2000/svg" xmlns:xlink="http://www.w3.org/1999/xlink" x="0px" y="0px"
	 viewBox="0 0 512 512" style="enable-background:new 0 0 512 512;" xml:space="preserve">
<style type="text/css">
	.st0{fill:#014999;}
	.st1{fill:#9E9E9E;}
	.st2{fill:#014999;stroke:#014999;stroke-width:6;stroke-miterlimit:10;}
	.st3{fill:#FFFFFF;}
	.st4{fill:none;}
	.st5{opacity:0.18;}
</style>
<g id="레이어_2">
	<g>
		<path class="st0" d="M414.7,379.3c-12,6-24,12-36,18c-66,0-132,0-198,0v-171c0,0,259,0,270,0c0,45,0,90,0,135c0,12,0,24,0,36
			c-12,0-24,0-36,0C414.7,391.3,414.7,385.3,414.7,379.3z"/>
		<path class="st0" d="M453.7,400.3l-42,0l0-16.1l-32.3,16.1l-0.7,0l-201,0v-177l3,0c0,0,259,0,270,0h3V400.3z M417.7,394.3l30,0
			v-165c-29,0-236.5,0-264,0v165H378l39.7-19.9L417.7,394.3z"/>
	</g>
	<g>
		<path class="st1" d="M414.7,386.8c12-6.7,24-13.3,36-20c0,10.2,0,20.3,0,30.5h-36C414.7,393.8,414.7,390.3,414.7,386.8z"/>
		<path class="st1" d="M453.7,400.3l-42,0v-15.3l1.5-0.9c6-3.3,12-6.7,18-10c6-3.3,12-6.7,18-10l4.5-2.5L453.7,400.3z M417.7,394.3
			h30v-22.4c-4.5,2.5-9,5-13.6,7.5c-5.5,3-11,6.1-16.4,9.1L417.7,394.3z"/>
	</g>
	<g>
		<ellipse class="st0" cx="98" cy="113.3" rx="28.7" ry="31"/>
		<path class="st0" d="M119.6,138.2c-5.9,5.9-13.5,9.1-21.6,9.1c-17.5,0-31.7-15.3-31.7-34c0-18.7,14.2-34,31.7-34l0,0
			c17.5,0,31.7,15.3,31.7,34c0,9-3.3,17.5-9.2,24C120.2,137.6,119.9,137.9,119.6,138.2z M80.7,92.7c-5.1,5.1-8.3,12.5-8.3,20.6
			c0,15.4,11.5,28,25.7,28c6.8,0,13.2-2.9,18.1-8.1c4.9-5.3,7.6-12.4,7.6-19.9c0-15.4-11.5-28-25.7-28
			C91.3,85.3,85.2,88.1,80.7,92.7z"/>
	</g>
	<g>
		<path class="st0" d="M147.7,397.3c-31,0-62,0-93,0c0-10.8,0-21.6,0-32.4c8.9,0,17.7,0,26.6,0c0-59.4,0-118.8,0-178.2
			c-8.9-5.4-17.7-10.8-26.6-16.2c0-5.4,0-10.8,0-16.2c13.3,0,26.6,0,39.9,0c8.9,0,17.7,0,26.6,0c0,70.2,0,140.4,0,210.6
			c8.9,0,17.7,0,26.6,0C147.7,375.7,147.7,386.5,147.7,397.3z"/>
		<path class="st0" d="M150.7,400.3l-99,0l0-38.4h26.6V188.4c-4-2.4-7.9-4.8-11.9-7.2c-4.4-2.7-8.8-5.4-13.3-8.1l-1.4-0.9v-20.9
			h72.5l0,210.6h26.6l0,3c-0.1,10.8-0.1,21.8-0.1,32.4V400.3z M57.7,394.3l87,0c0-8.7,0-17.6,0.1-26.4h-26.6l0-210.6H57.7v11.5
			c4,2.4,7.9,4.8,11.9,7.2c4.4,2.7,8.8,5.4,13.3,8.1l1.4,0.9v182.9H57.7L57.7,394.3z"/>
	</g>
	<g>
		<path class="st0" d="M450.7,244.3c-12,0-24,0-36,0c0-42,0-84,0-126c-54,0-108,0-162,0c-12,6-24,12-36,18c0,36,0,72,0,108
			c-12,0-24,0-36,0c0-51,0-102,0-153c12,0,24,0,36,0c0,6,0,12,0,18c12-6,24-12,36-18c66,0,132,0,198,0
			C450.7,142.3,450.7,193.3,450.7,244.3z"/>
		<path class="st0" d="M453.7,247.3h-42l0-126H253.4l-33.7,16.9v109.1h-42l0-159l42,0l0,16.1L252,88.3h201.7V247.3z M417.7,241.3h30
			v-147H253.4l-39.7,19.9V94.3h-30l0,147h30l0-106.9l38.3-19.1h165.7L417.7,241.3z"/>
	</g>
	<path class="st2" d="M213.7,96"/>
	<path class="st2" d="M213.7,201.9"/>
	<path class="st2" d="M117.7,127.3"/>
	<circle class="st3" cx="243.7" cy="289.3" r="18"/>
	<circle class="st3" cx="387.7" cy="289.3" r="18"/>
	<path class="st3" d="M417,116.1c-54,0-108,0-162,0c-12,6-24,12-36,18c0,30,0,60,0,90h198V116.1z"/>
	<path class="st3" d="M472.8,513.4h-433c-22,0-40-18-40-40v-432c0-22,18-40,40-40h433c22,0,40,18,40,40v432
		C512.8,495.4,494.8,513.4,472.8,513.4z"/>
	<g>
		<path class="st4" d="M472.8,1.4h-433c-22,0-40,18-40,40v432c0,22,18,40,40,40h125.5L52.2,400.3l45.1-38.2L120.7,182l-45.4-45.4
			l46.5-46.5l175.6,175.6l39.8-45L220.2,104.5l0-16.1l124.2,124.2L454.2,88.3l58.6,58.6V41.4C512.8,19.4,494.8,1.4,472.8,1.4z"/>
		<path class="st5" d="M344.4,212.5L220.2,88.3l0,16.1l116.9,116.2l-39.8,45L121.8,90.1l-46.5,46.5l45.4,45.4L97.4,362.1l-45.1,38.2
			l113.1,113.1h307.5c22,0,40-18,40-40V146.9l-58.6-58.6L344.4,212.5z"/>
	</g>
	<g>
		<path class="st0" d="M414.7,379.3c-12,6-24,12-36,18c-66,0-132,0-198,0v-171c0,0,259,0,270,0c0,45,0,90,0,135c0,12,0,24,0,36
			c-12,0-24,0-36,0C414.7,391.3,414.7,385.3,414.7,379.3z"/>
		<path class="st0" d="M453.7,400.3l-42,0l0-16.1l-32.3,16.1l-0.7,0l-201,0v-177l3,0c0,0,259,0,270,0h3V400.3z M417.7,394.3l30,0
			v-165c-29,0-236.5,0-264,0v165H378l39.7-19.9L417.7,394.3z"/>
	</g>
	<g>
		<path class="st1" d="M414.7,386.8c12-6.7,24-13.3,36-20c0,10.2,0,20.3,0,30.5h-36C414.7,393.8,414.7,390.3,414.7,386.8z"/>
		<path class="st1" d="M453.7,400.3l-42,0v-15.3l1.5-0.9c6-3.3,12-6.7,18-10c6-3.3,12-6.7,18-10l4.5-2.5L453.7,400.3z M417.7,394.3
			h30v-22.4c-4.5,2.5-9,5-13.6,7.5c-5.5,3-11,6.1-16.4,9.1L417.7,394.3z"/>
	</g>
	<g>
		<ellipse class="st0" cx="98" cy="113.3" rx="28.7" ry="31"/>
		<path class="st0" d="M119.6,138.2c-5.9,5.9-13.5,9.1-21.6,9.1c-17.5,0-31.7-15.3-31.7-34c0-18.7,14.2-34,31.7-34l0,0
			c17.5,0,31.7,15.3,31.7,34c0,9-3.3,17.5-9.2,24C120.2,137.6,119.9,137.9,119.6,138.2z M80.7,92.7c-5.1,5.1-8.3,12.5-8.3,20.6
			c0,15.4,11.5,28,25.7,28c6.8,0,13.2-2.9,18.1-8.1c4.9-5.3,7.6-12.4,7.6-19.9c0-15.4-11.5-28-25.7-28
			C91.3,85.3,85.2,88.1,80.7,92.7z"/>
	</g>
	<g>
		<path class="st0" d="M147.7,397.3c-31,0-62,0-93,0c0-10.8,0-21.6,0-32.4c8.9,0,17.7,0,26.6,0c0-59.4,0-118.8,0-178.2
			c-8.9-5.4-17.7-10.8-26.6-16.2c0-5.4,0-10.8,0-16.2c13.3,0,26.6,0,39.9,0c8.9,0,17.7,0,26.6,0c0,70.2,0,140.4,0,210.6
			c8.9,0,17.7,0,26.6,0C147.7,375.7,147.7,386.5,147.7,397.3z"/>
		<path class="st0" d="M150.7,400.3l-99,0l0-38.4h26.6V188.4c-4-2.4-7.9-4.8-11.9-7.2c-4.4-2.7-8.8-5.4-13.3-8.1l-1.4-0.9v-20.9
			h72.5l0,210.6h26.6l0,3c-0.1,10.8-0.1,21.8-0.1,32.4V400.3z M57.7,394.3l87,0c0-8.7,0-17.6,0.1-26.4h-26.6l0-210.6H57.7v11.5
			c4,2.4,7.9,4.8,11.9,7.2c4.4,2.7,8.8,5.4,13.3,8.1l1.4,0.9v182.9H57.7L57.7,394.3z"/>
	</g>
	<g>
		<path class="st0" d="M450.7,244.3c-12,0-24,0-36,0c0-42,0-84,0-126c-54,0-108,0-162,0c-12,6-24,12-36,18c0,36,0,72,0,108
			c-12,0-24,0-36,0c0-51,0-102,0-153c12,0,24,0,36,0c0,6,0,12,0,18c12-6,24-12,36-18c66,0,132,0,198,0
			C450.7,142.3,450.7,193.3,450.7,244.3z"/>
		<path class="st0" d="M453.7,247.3h-42l0-126H253.4l-33.7,16.9v109.1h-42l0-159l42,0l0,16.1L252,88.3h201.7V247.3z M417.7,241.3h30
			v-147H253.4l-39.7,19.9V94.3h-30l0,147h30l0-106.9l38.3-19.1h165.7L417.7,241.3z"/>
	</g>
	<circle class="st3" cx="243.7" cy="289.3" r="18"/>
	<circle class="st3" cx="387.7" cy="289.3" r="18"/>
	<path class="st3" d="M414.7,118.3c-54,0-108,0-162,0c-12,6-24,12-36,18c0,30,0,60,0,90h198V118.3z"/>
</g>
<g id="레이어_3">
</g>
</svg>
