<?xml version="1.0" encoding="utf-8"?>
<!-- Generator: Adobe Illustrator 21.1.0, SVG Export Plug-In . SVG Version: 6.00 Build 0)  -->
<svg version="1.1" xmlns="http://www.w3.org/2000/svg" xmlns:xlink="http://www.w3.org/1999/xlink" x="0px" y="0px"
	 viewBox="0 0 192 192" style="enable-background:new 0 0 192 192;" xml:space="preserve">
<style type="text/css">
	.st0{fill:#FFFFFF;}
	.st1{fill:#0080FF;}
</style>
<g id="레이어_2">
	<path class="st0" d="M176,192H16c-8.8,0-16-7.2-16-16V16C0,7.2,7.2,0,16,0h160c8.8,0,16,7.2,16,16v160C192,184.8,184.8,192,176,192
		z"/>
</g>
<g id="레이어_1">
	<path class="st1" d="M16,0h160c8.8,0,16,7.2,16,16v160c0,8.8-7.2,16-16,16H16c-8.8,0-16-7.2-16-16V16C0,7.2,7.2,0,16,0z"/>
	<path class="st0" d="M167.3,134H26.6c-3.3,0-6-2.7-6-6V28.3c0-3.3,2.7-6,6-6h140.7c3.3,0,6,2.7,6,6V128
		C173.3,131.3,170.7,134,167.3,134z"/>
	<circle class="st0" cx="48.5" cy="165.3" r="13.5"/>
	<circle class="st0" cx="145.5" cy="165.3" r="13.5"/>
	<g>
		<g>
			<path class="st1" d="M44.3,104.4c0,3.3-2.7,6-6,6H37c-3.3,0-6-2.7-6-6V51.7c0-3.3,2.7-6,6-6h1.3c3.3,0,6,2.7,6,6V104.4z"/>
			<path class="st1" d="M109.2,104.4c0,3.3-2.7,6-6,6h-1.3c-3.3,0-7.4-2.3-9.1-5.1L73.1,72.9c-1.7-2.8-3.1-2.4-3.1,0.9v30.6
				c0,3.3-2.7,6-6,6h-1.3c-3.3,0-6-2.7-6-6V51.7c0-3.3,2.7-6,6-6H64c3.3,0,7.4,2.3,9.1,5.1l19.7,32.4c1.7,2.8,3.1,2.4,3.1-0.9V51.7
				c0-3.3,2.7-6,6-6h1.3c3.3,0,6,2.7,6,6V104.4z"/>
			<path class="st1" d="M163.8,45.7c3.3,0,6,2.7,6,6v30.7c0,3.3-0.2,8.7-0.5,12c0,0-0.1,1.1-1.3,3.9c-1.2,2.9-3,5.3-5.2,7.2
				c-2.2,1.9-4.8,3.4-7.8,4.4c-3,1-6.3,1.5-9.9,1.5c-3.6,0-6.9-0.5-10-1.5c-3-1-5.7-2.4-7.8-4.4c-2.2-1.9-3.9-4.3-5.1-7.2
				c-1.2-2.9-1.3-3.9-1.3-3.9c-0.3-3.3-0.5-8.7-0.5-12V51.7c0-3.3,2.7-6,6-6h1.3c3.3,0,6,2.7,6,6v30.7c0,3.3,0.4,8.7,0.8,11.9
				c0,0,0.2,1.4,2.2,3.3c2,1.9,4.8,2.9,8.4,2.9c3.6,0,6.4-1,8.4-2.9c2-1.9,2.2-3.3,2.2-3.3c0.4-3.3,0.8-8.6,0.8-11.9V51.7
				c0-3.3,2.7-6,6-6H163.8z"/>
		</g>
	</g>
</g>
</svg>
