<?xml version="1.0" encoding="utf-8"?>
<!-- Generator: Adobe Illustrator 21.1.0, SVG Export Plug-In . SVG Version: 6.00 Build 0)  -->
<svg version="1.1" id="레이어_1" xmlns="http://www.w3.org/2000/svg" xmlns:xlink="http://www.w3.org/1999/xlink" x="0px"
	 y="0px" viewBox="0 0 400 400" style="enable-background:new 0 0 400 400;" xml:space="preserve">
<style type="text/css">
	.st0{fill:#014999;}
	.st1{fill:none;stroke:#014999;stroke-width:11;stroke-miterlimit:10;}
</style>
<g>
	<path class="st0" d="M47,61c0.5,0,1,0.5,1,1v248c0,0.5-0.5,1-1,1H33c-0.5,0-1-0.5-1-1V62c0-0.5,0.5-1,1-1H47 M47,50H33
		c-6.6,0-12,5.4-12,12v248c0,6.6,5.4,12,12,12h14c6.6,0,12-5.4,12-12V62C59,55.4,53.6,50,47,50L47,50z"/>
</g>
<g>
	<path class="st0" d="M367,61c0.5,0,1,0.5,1,1v248c0,0.5-0.5,1-1,1h-14c-0.5,0-1-0.5-1-1V62c0-0.5,0.5-1,1-1H367 M367,50h-14
		c-6.6,0-12,5.4-12,12v248c0,6.6,5.4,12,12,12h14c6.6,0,12-5.4,12-12V62C379,55.4,373.6,50,367,50L367,50z"/>
</g>
<g>
	<path class="st0" d="M40,18c2.8,0,8,6.3,8,16.5S42.8,51,40,51s-8-6.3-8-16.5S37.2,18,40,18 M40,7C29.5,7,21,19.3,21,34.5
		S29.5,62,40,62s19-12.3,19-27.5S50.5,7,40,7L40,7z"/>
</g>
<g>
	<path class="st0" d="M360,18c2.8,0,8,6.3,8,16.5S362.8,51,360,51s-8-6.3-8-16.5S357.2,18,360,18 M360,7c-10.5,0-19,12.3-19,27.5
		S349.5,62,360,62s19-12.3,19-27.5S370.5,7,360,7L360,7z"/>
</g>
<path class="st1" d="M53.5,315.5c39,21.7,78,43.3,117,65c0-70.3,0-140.7,0-211c-39-26.3-78-52.7-117-79V315.5z"/>
<path class="st1" d="M230.5,381.5c38.3-22,76.7-44,115-66v-225c-38.3,26.7-76.7,53.3-115,80C230.5,240.8,230.5,311.2,230.5,381.5z"
	/>
<path class="st1" d="M217.5,145.5"/>
</svg>
