<svg xmlns="http://www.w3.org/2000/svg" viewBox="0 0 512 512"><defs><style>.cls-1{fill:none;}.cls-2{opacity:0.18;}.cls-3,.cls-5{fill:#014999;}.cls-4{fill:#9e9e9e;}.cls-5{stroke:#014999;stroke-miterlimit:10;stroke-width:6px;}.cls-6{fill:#fff;}</style></defs><title>자산 2</title><g id="레이어_2" data-name="레이어 2"><g id="레이어_2-2" data-name="레이어 2"><polygon class="cls-1" points="51.41 398.91 96.54 360.73 119.92 180.59 74.48 135.15 120.95 88.69 296.52 264.26 336.34 219.25 219.41 103.06 219.41 86.91 343.57 211.07 453.41 86.91 512 145.5 512 0 0 0 0 512 164.5 512 51.41 398.91"/><polygon class="cls-2" points="343.57 211.07 219.41 86.91 219.41 103.06 336.34 219.25 296.52 264.26 120.95 88.69 74.48 135.15 119.92 180.59 96.54 360.73 51.41 398.91 164.5 512 512 512 512 145.5 453.41 86.91 343.57 211.07"/><path class="cls-3" d="M414.41,377.91l-36,18h-198v-171h270v171h-36Z"/><path class="cls-3" d="M453.41,398.91h-42V382.76l-32.29,16.15H177.41v-177h276Zm-36-6h30v-165h-264v165H377.7l39.71-19.85Z"/><path class="cls-4" d="M414.41,385.41c12-6.7,24-13.3,36-20v30.5h-36Z"/><path class="cls-4" d="M453.41,398.91h-42V383.65l1.54-.86q9-5,18-10t18-10l4.46-2.49Zm-36-6h30V370.52l-13.57,7.53q-8.21,4.55-16.43,9.12Z"/><ellipse class="cls-3" cx="97.71" cy="111.91" rx="28.7" ry="31"/><path class="cls-3" d="M119.3,136.8a30.33,30.33,0,0,1-21.6,9.11c-17.48,0-31.7-15.25-31.7-34s14.22-34,31.7-34h0c17.48,0,31.7,15.25,31.7,34a35.08,35.08,0,0,1-9.2,24Q119.76,136.35,119.3,136.8Zm-39-45.52A29.12,29.12,0,0,0,72,111.91c0,15.44,11.53,28,25.7,28a24.51,24.51,0,0,0,18.09-8.12,29.1,29.1,0,0,0,7.61-19.88c0-15.44-11.53-28-25.7-28A24.49,24.49,0,0,0,80.35,91.28Z"/><path class="cls-3" d="M147.41,395.91h-93v-32.4H81V185.31c-8.9-5.4-17.7-10.8-26.6-16.2v-16.2h66.5v210.6h26.6C147.41,374.31,147.41,385.11,147.41,395.91Z"/><path class="cls-3" d="M150.41,398.91h-99v-38.4H78V187l-11.86-7.23q-6.63-4-13.29-8.1l-1.44-.88V149.91h72.5v210.6h26.63l0,3c-.1,10.79-.1,21.76-.1,32.37Zm-93-6h87c0-8.69,0-17.59.07-26.4H117.91V155.91H57.41v11.51l11.86,7.23q6.63,4,13.29,8.1l1.44.88V366.51H57.41Z"/><path class="cls-3" d="M450.41,242.91h-36v-126h-162l-36,18v108h-36v-153h36v18l36-18h198Z"/><path class="cls-3" d="M453.41,245.91h-42v-126H253.12l-33.71,16.85V245.91h-42v-159h42v16.15L251.7,86.91H453.41Zm-36-6h30v-147H253.12l-39.71,19.85V92.91h-30v147h30V133.06l38.29-19.15H417.41Z"/><path class="cls-5" d="M213.41,94.61"/><path class="cls-5" d="M213.41,200.51"/><path class="cls-5" d="M117.41,125.91"/><circle class="cls-6" cx="243.41" cy="287.91" r="18"/><circle class="cls-6" cx="387.41" cy="287.91" r="18"/><path class="cls-6" d="M416.66,114.66h-162l-36,18v90h198Z"/></g></g></svg>