<svg xmlns="http://www.w3.org/2000/svg" viewBox="0 0 513 512"><defs><style>.cls-1,.cls-3{fill:#014999;}.cls-2{fill:#9e9e9e;}.cls-3{stroke:#014999;stroke-miterlimit:10;stroke-width:6px;}.cls-4{fill:#fff;}.cls-5{fill:none;}.cls-6{opacity:0.18;}</style></defs><title>자산 4</title><g id="레이어_2" data-name="레이어 2"><g id="레이어_2-2" data-name="레이어 2"><path class="cls-1" d="M414.91,377.91l-36,18h-198v-171h270v171h-36Z"/><path class="cls-1" d="M453.91,398.91h-42V382.76l-32.29,16.15H177.91v-177h276Zm-36-6h30v-165h-264v165H378.2l39.71-19.85Z"/><path class="cls-2" d="M414.91,385.41c12-6.7,24-13.3,36-20v30.5h-36Z"/><path class="cls-2" d="M453.91,398.91h-42V383.65l1.54-.86q9-5,18-10t18-10l4.46-2.49Zm-36-6h30V370.52l-13.57,7.53q-8.21,4.55-16.43,9.12Z"/><ellipse class="cls-1" cx="98.21" cy="111.91" rx="28.7" ry="31"/><path class="cls-1" d="M119.8,136.8a30.33,30.33,0,0,1-21.6,9.11c-17.48,0-31.7-15.25-31.7-34s14.22-34,31.7-34h0c17.48,0,31.7,15.25,31.7,34a35.08,35.08,0,0,1-9.2,24Q120.26,136.35,119.8,136.8Zm-39-45.52a29.12,29.12,0,0,0-8.34,20.63c0,15.44,11.53,28,25.7,28a24.51,24.51,0,0,0,18.09-8.12,29.1,29.1,0,0,0,7.61-19.88c0-15.44-11.53-28-25.7-28A24.49,24.49,0,0,0,80.85,91.28Z"/><path class="cls-1" d="M147.91,395.91h-93v-32.4h26.6V185.31c-8.9-5.4-17.7-10.8-26.6-16.2v-16.2h66.5v210.6H148C147.91,374.31,147.91,385.11,147.91,395.91Z"/><path class="cls-1" d="M150.91,398.91h-99v-38.4h26.6V187l-11.86-7.23q-6.63-4-13.29-8.1l-1.44-.88V149.91h72.5v210.6H151l0,3c-.1,10.79-.1,21.76-.1,32.37Zm-93-6h87c0-8.69,0-17.59.07-26.4H118.41V155.91H57.91v11.51l11.86,7.23q6.63,4,13.29,8.1l1.44.88V366.51H57.91Z"/><path class="cls-1" d="M450.91,242.91h-36v-126h-162l-36,18v108h-36v-153h36v18l36-18h198Z"/><path class="cls-1" d="M453.91,245.91h-42v-126H253.62l-33.71,16.85V245.91h-42v-159h42v16.15L252.2,86.91H453.91Zm-36-6h30v-147H253.62l-39.71,19.85V92.91h-30v147h30V133.06l38.29-19.15H417.91Z"/><path class="cls-3" d="M213.91,94.61"/><path class="cls-3" d="M213.91,200.51"/><path class="cls-3" d="M117.91,125.91"/><circle class="cls-4" cx="243.91" cy="287.91" r="18"/><circle class="cls-4" cx="387.91" cy="287.91" r="18"/><path class="cls-4" d="M417.16,114.66h-162l-36,18v90h198Z"/><rect class="cls-4" width="513" height="512" rx="40" ry="40"/><path class="cls-5" d="M473,0H40A40.12,40.12,0,0,0,0,40V472a40.12,40.12,0,0,0,40,40H165.5L52.41,398.91l45.14-38.18,23.38-180.14L75.48,135.15l46.46-46.46L297.52,264.26l39.82-45L220.41,103.06V86.91L344.57,211.07,454.41,86.91,513,145.5V40A40.12,40.12,0,0,0,473,0Z"/><path class="cls-6" d="M344.57,211.07,220.41,86.91v16.15L337.34,219.25l-39.82,45L121.95,88.68,75.48,135.15l45.44,45.44L97.54,360.73,52.41,398.91,165.5,512H473a40.12,40.12,0,0,0,40-40V145.5L454.41,86.91Z"/><path class="cls-1" d="M414.91,377.91l-36,18h-198v-171h270v171h-36Z"/><path class="cls-1" d="M453.91,398.91h-42V382.76l-32.29,16.15H177.91v-177h276Zm-36-6h30v-165h-264v165H378.2l39.71-19.85Z"/><path class="cls-2" d="M414.91,385.41c12-6.7,24-13.3,36-20v30.5h-36Z"/><path class="cls-2" d="M453.91,398.91h-42V383.65l1.54-.86q9-5,18-10t18-10l4.46-2.49Zm-36-6h30V370.52l-13.57,7.53q-8.21,4.55-16.43,9.12Z"/><ellipse class="cls-1" cx="98.21" cy="111.91" rx="28.7" ry="31"/><path class="cls-1" d="M119.8,136.8a30.33,30.33,0,0,1-21.6,9.11c-17.48,0-31.7-15.25-31.7-34s14.22-34,31.7-34h0c17.48,0,31.7,15.25,31.7,34a35.08,35.08,0,0,1-9.2,24Q120.26,136.35,119.8,136.8Zm-39-45.52a29.12,29.12,0,0,0-8.34,20.63c0,15.44,11.53,28,25.7,28a24.51,24.51,0,0,0,18.09-8.12,29.1,29.1,0,0,0,7.61-19.88c0-15.44-11.53-28-25.7-28A24.49,24.49,0,0,0,80.85,91.28Z"/><path class="cls-1" d="M147.91,395.91h-93v-32.4h26.6V185.31c-8.9-5.4-17.7-10.8-26.6-16.2v-16.2h66.5v210.6H148C147.91,374.31,147.91,385.11,147.91,395.91Z"/><path class="cls-1" d="M150.91,398.91h-99v-38.4h26.6V187l-11.86-7.23q-6.63-4-13.29-8.1l-1.44-.88V149.91h72.5v210.6H151l0,3c-.1,10.79-.1,21.76-.1,32.37Zm-93-6h87c0-8.69,0-17.59.07-26.4H118.41V155.91H57.91v11.51l11.86,7.23q6.63,4,13.29,8.1l1.44.88V366.51H57.91Z"/><path class="cls-1" d="M450.91,242.91h-36v-126h-162l-36,18v108h-36v-153h36v18l36-18h198Z"/><path class="cls-1" d="M453.91,245.91h-42v-126H253.62l-33.71,16.85V245.91h-42v-159h42v16.15L252.2,86.91H453.91Zm-36-6h30v-147H253.62l-39.71,19.85V92.91h-30v147h30V133.06l38.29-19.15H417.91Z"/><circle class="cls-4" cx="243.91" cy="287.91" r="18"/><circle class="cls-4" cx="387.91" cy="287.91" r="18"/><path class="cls-4" d="M414.91,116.91h-162l-36,18v90h198Z"/></g></g></svg>