<?xml version="1.0" encoding="utf-8"?>
<!-- Generator: Adobe Illustrator 21.1.0, SVG Export Plug-In . SVG Version: 6.00 Build 0)  -->
<svg version="1.1" xmlns="http://www.w3.org/2000/svg" xmlns:xlink="http://www.w3.org/1999/xlink" x="0px" y="0px"
	 viewBox="0 0 513 512" style="enable-background:new 0 0 513 512;" xml:space="preserve">
<style type="text/css">
	.st0{fill:#FFFFFF;}
	.st1{fill:#014999;}
	.st2{fill:#9E9E9E;}
	.st3{fill:#014999;stroke:#014999;stroke-width:6;stroke-miterlimit:10;}
</style>
<g id="레이어_2">
	<path class="st0" d="M40,0h433c22.1,0,40,17.9,40,40v432c0,22.1-17.9,40-40,40H40c-22.1,0-40-17.9-40-40V40C0,17.9,17.9,0,40,0z"/>
</g>
<g id="레이어_1">
	<title>자산 3</title>
	<g>
		<path class="st1" d="M419.6,454.4c0-6.8-5-9.4-11.2-5.8l-19.3,11.5c-6.1,3.7-17,6.7-24.2,6.7H162.1c-7.1,0-13-5.8-13-13v-210
			c0-7.1,5.9-13,13-13h286.1c7.1,0,13,5.9,13,13v210c0,7.2-5.9,13-13,13h-15.6C425.4,466.9,419.6,461.3,419.6,454.4z"/>
	</g>
	<path class="st2" d="M419.6,452.4c13.9-9.2,27.7-18.4,41.6-27.6v42.1h-41.6V452.4z"/>
	<g>
		<path class="st1" d="M63.8,466.9c-7.2,0-13-5.8-13-13V137.3c0-7.1,5.8-13,13-12.9l21.8-0.1c7.1-0.1,13,5.6,13,12.8L99,453.9
			c0,7.1-5.8,13-13,13H63.8z"/>
	</g>
	<g>
		<path class="st1" d="M461.2,242.7c0,7.1-5.9,13-13,13h-15.6c-7.1,0-13-5.9-13-13V94.8c0-7.1-5.9-13-13-13H245.3
			c-7.1,0-18,3-24.2,6.7L201.9,100c-6.1,3.7-11.2,12.5-11.2,19.7v123c0,7.1-5.9,13-13,13h-15.6c-7.1,0-13-5.9-13-13V57.6
			c0-7.2,5.9-13,13-13h15.6c7.1,0,13,5.6,13,12.4s5,9.4,11.2,5.8l19.3-11.5c6.1-3.7,17-6.7,24.2-6.7h202.9c7.1,0,13,5.8,13,13V242.7
			z"/>
	</g>
	<path class="st3" d="M187.2,51"/>
	<path class="st3" d="M187.2,197.2"/>
	<g>
		<path class="st2" d="M419.6,450.3c0-4.6,5.1-11.2,11.3-14.8c0,0,1-0.6,7.7-4.2c7.8-4.1,10.9-5.7,10.9-5.7
			c6.4-3.1,11.7,0.2,11.7,7.3v20.9c0,7.2-5.9,13-13,13h-15.6C425.4,466.9,419.6,454.9,419.6,450.3z"/>
	</g>
	<ellipse class="st1" cx="75.5" cy="81.8" rx="28.7" ry="30.4"/>
	<circle class="st0" cx="222.5" cy="322.1" r="31.7"/>
	<circle class="st0" cx="387.8" cy="322.1" r="31.7"/>
</g>
</svg>
